<svg viewBox="0 0 24 24" xmlns="http://www.w3.org/2000/svg">
<path d="M19.42 5.22H16.95V3.87C16.95 3.39 16.56 3 16.09 3C15.62 3 15.22 3.39 15.22 3.87V5.22H9.18V3.87C9.18 3.39 8.79 3 8.31 3C7.83 3 7.45 3.39 7.45 3.87V5.22H4.98C3.89 5.22 3 6.11 3 7.2V19.42C3 20.51 3.89 21.4 4.98 21.4H19.42C20.51 21.4 21.4 20.51 21.4 19.42V7.2C21.4 6.11 20.51 5.22 19.42 5.22ZM8.31 8.62C8.79 8.62 9.18 8.23 9.18 7.76V6.96H15.22V7.76C15.22 8.23 15.61 8.62 16.09 8.62C16.57 8.62 16.95 8.23 16.95 7.76V6.96H19.42C19.56 6.96 19.67 7.07 19.67 7.2V9.67H4.73V7.2C4.73 7.07 4.84 6.96 4.98 6.96H7.45V7.76C7.45 8.23 7.84 8.62 8.31 8.62ZM19.67 19.42C19.67 19.56 19.56 19.67 19.42 19.67H4.98C4.84 19.67 4.73 19.56 4.73 19.42V11.4H19.67V19.42Z" />
</svg>
