<svg width="123" height="40" viewBox="0 0 123 40" fill="none" xmlns="http://www.w3.org/2000/svg">
<path d="M16.2212 9.23937L6.86239 18.7472V9.23937H0.623169V30.783H6.86239V19.6868H6.92924L15.6642 30.783H23.7529L13.681 18.9038L23.7529 9.23937H16.2212ZM33.2231 26.7785H38.8161C39.3063 26.7785 39.7743 26.7338 40.1754 26.6667C40.5988 26.5996 40.9553 26.4653 41.2672 26.2864C41.5792 26.1074 41.8243 25.8613 42.0026 25.5257C42.1808 25.2125 42.27 24.8098 42.27 24.34C42.27 23.8702 42.1808 23.5347 41.9803 23.1991C41.802 22.8859 41.5569 22.6174 41.245 22.4161C40.9553 22.2148 40.5988 22.0805 40.2199 21.9911C39.8411 21.9016 39.4623 21.8568 39.0835 21.8568H33.2008V26.7785H33.2231ZM33.2231 18.0313H37.1226C38.4596 18.0313 39.5069 17.83 40.2645 17.4497C40.9999 17.0694 41.3787 16.443 41.3787 15.6152C41.3787 14.7204 41.0667 14.094 40.4205 13.7584C39.7743 13.4004 38.8607 13.2438 37.6351 13.2438H33.2454V18.0313H33.2231ZM27.1621 9.23937H39.7966C41.2227 9.23937 42.4482 9.39597 43.451 9.6868C44.4537 9.97763 45.2782 10.3803 45.9244 10.8725C46.5706 11.3647 47.0385 11.9239 47.3282 12.5727C47.6179 13.2215 47.7739 13.8926 47.7739 14.5638C47.7739 15.7942 47.3728 16.868 46.5483 17.7629C45.7238 18.6577 44.632 19.2841 43.2281 19.6197V19.6868C44.0526 19.7539 44.8102 19.9553 45.4787 20.2237C46.1472 20.5145 46.7266 20.8725 47.1945 21.3199C47.6624 21.7673 48.0413 22.2819 48.2864 22.8859C48.5538 23.4899 48.6652 24.1163 48.6652 24.7875C48.6652 25.5257 48.5315 26.2416 48.2418 26.9575C47.9521 27.6734 47.4619 28.3221 46.7934 28.8814C46.1026 29.4407 45.189 29.9105 44.0526 30.2685C42.9162 30.6264 41.4901 30.8054 39.7743 30.8054H27.1621V9.23937ZM57.9794 26.7785H63.5725C64.0627 26.7785 64.5306 26.7338 64.9317 26.6667C65.3551 26.5996 65.7116 26.4653 66.0236 26.2864C66.3355 26.1074 66.5807 25.8613 66.7589 25.5257C66.9372 25.2125 67.0263 24.8098 67.0263 24.34C67.0263 23.8702 66.9372 23.5347 66.7366 23.1991C66.5584 22.8859 66.3133 22.6174 66.0013 22.4161C65.7116 22.2148 65.3551 22.0805 64.9763 21.9911C64.5975 21.9016 64.2187 21.8568 63.8399 21.8568H57.9572V26.7785H57.9794ZM57.9794 18.0313H61.879C63.2159 18.0313 64.2632 17.83 65.0209 17.4497C65.7562 17.0694 66.135 16.443 66.135 15.6152C66.135 14.7204 65.823 14.094 65.1768 13.7584C64.5306 13.4004 63.617 13.2438 62.3915 13.2438H58.0017V18.0313H57.9794ZM51.9185 9.23937H64.5529C65.979 9.23937 67.2046 9.39597 68.2073 9.6868C69.21 9.97763 70.0345 10.3803 70.6807 10.8725C71.3269 11.3647 71.7949 11.9239 72.0845 12.5727C72.3742 13.2215 72.5302 13.8926 72.5302 14.5638C72.5302 15.7942 72.1291 16.868 71.3046 17.7629C70.4802 18.6577 69.3883 19.2841 67.9845 19.6197V19.6868C68.809 19.7539 69.5666 19.9553 70.2351 20.2237C70.9035 20.5145 71.4829 20.8725 71.9509 21.3199C72.4188 21.7673 72.7976 22.2819 73.0427 22.8859C73.3101 23.4899 73.4215 24.1163 73.4215 24.7875C73.4215 25.5257 73.2878 26.2416 72.9981 26.9575C72.7085 27.6734 72.2182 28.3221 71.5498 28.8814C70.859 29.4407 69.9454 29.9105 68.809 30.2685C67.6725 30.6264 66.2464 30.8054 64.5529 30.8054H51.8962V9.23937H51.9185ZM102.278 1.45414C92.0946 1.45414 83.7831 9.77629 83.7831 20.0224C83.7831 30.2685 92.0723 38.5682 102.278 38.5682C112.484 38.5682 120.773 30.2461 120.773 20.0224C120.75 9.77629 112.461 1.45414 102.278 1.45414ZM102.278 40C91.2924 40 82.357 31.0291 82.357 20C82.357 8.97092 91.2924 0 102.278 0C113.263 0 122.199 8.97092 122.199 20C122.199 31.0291 113.263 40 102.278 40Z" fill="black" fill-opacity="0.4"/>
<path d="M118.926 19.9981C118.926 10.7811 111.461 3.30908 102.28 3.30908C93.0997 3.30908 85.6349 10.7811 85.6349 19.9981H95.2835C95.796 15.6581 98.9156 12.8169 103.305 12.8169C105.957 12.8169 108.341 13.9355 110.035 15.7252C111.216 16.8885 112.063 18.3426 112.486 19.9758C112.597 20.3784 112.686 20.8035 112.731 21.2285C112.753 21.5865 112.776 21.9668 112.798 22.3247V22.4142C112.798 29.5507 106.871 35.3225 99.5618 35.3225C96.1525 35.3225 93.0552 34.0473 90.7155 31.9892C93.7014 34.8975 97.7792 36.6872 102.28 36.6872C111.461 36.7095 118.926 29.2375 118.926 19.9981Z" fill="black" fill-opacity="0.4"/>
<path d="M97.2923 20.0001C97.2923 22.6847 99.5206 24.8547 102.261 24.8547C105.002 24.8547 107.23 22.6847 107.23 20.0001C107.23 17.3155 105.002 15.1455 102.261 15.1455C99.5206 15.1455 97.2923 17.3155 97.2923 20.0001Z" fill="black" fill-opacity="0.4"/>
</svg>
