<svg width="122" height="64" viewBox="0 0 122 64" fill="none" xmlns="http://www.w3.org/2000/svg">
<mask id="mask0_2023_47993" style="mask-type:luminance" maskUnits="userSpaceOnUse" x="2" y="0" width="119" height="64">
<path d="M2.12 63.9365H120.118V0.0811386H2.12V63.9365Z" fill="white"/>
</mask>
<g mask="url(#mask0_2023_47993)">
<path fill-rule="evenodd" clip-rule="evenodd" d="M114.911 1.97937H115.147H115.463L115.699 2.06085H115.937L116.172 2.14233L116.408 2.22381L116.723 2.30352L116.881 2.385L117.119 2.46648L117.354 2.62766L117.59 2.70914L117.748 2.8721L117.984 3.03506L118.142 3.19625L118.38 3.35921L118.536 3.5204L118.693 3.68336L118.851 3.84632L119.009 4.08899L119.166 4.25017L119.245 4.49461L119.403 4.73728L119.483 4.90024L119.639 5.14291L119.718 5.38558L119.797 5.63002L119.875 5.87269V6.11713L119.956 6.44127V6.68394L120.033 6.92838V7.17105V7.4952L119.956 7.73964V7.98231L119.875 8.22674V8.46941L119.797 8.71385L119.718 8.95652L119.639 9.19919L119.483 9.44363L119.403 9.6863L119.324 9.84926L119.166 10.0919L119.009 10.3364L118.851 10.4976L118.693 10.6587L118.536 10.9032L118.38 11.0661L118.142 11.2273L117.984 11.3903L117.748 11.5515L117.59 11.633L117.354 11.7959L117.119 11.8756L116.881 12.0386L116.645 12.1201L116.408 12.2015H116.172L115.937 12.2813L115.699 12.3627H115.463H115.226H114.99H114.675H114.44H114.202L113.967 12.2813L113.729 12.2015H113.493L113.258 12.1201L113.02 11.9571L112.783 11.8756L112.547 11.7959L112.311 11.633L112.153 11.47L111.917 11.3903L111.759 11.2273L111.603 11.0661L111.444 10.9032L111.209 10.6587L111.05 10.4976L110.894 10.3364L110.815 10.0919L110.656 9.84926L110.498 9.6863L110.421 9.44363L110.341 9.19919L110.262 8.95652L110.183 8.71385L110.104 8.46941L110.027 8.22674L109.947 7.98231V7.73964V7.41549V7.17105V6.92838V6.68394V6.44127L110.027 6.11713L110.104 5.87269L110.183 5.63002L110.262 5.38558L110.341 5.22439L110.421 4.98172L110.498 4.73728L110.656 4.49461L110.815 4.25017L110.894 4.08899L111.05 3.84632L111.288 3.68336L111.444 3.5204L111.603 3.35921L111.759 3.19625L111.997 3.03506L112.153 2.8721L112.391 2.70914L112.626 2.62766L112.864 2.46648L113.02 2.385L113.258 2.30352L113.493 2.22381L113.729 2.14233L113.967 2.06085H114.202L114.44 1.97937H114.675H114.911ZM115.069 2.70914H114.834H114.596L114.361 2.79062H114.202L113.967 2.8721H113.729L113.573 2.95358L113.335 3.03506L113.179 3.19625L112.941 3.27773L112.783 3.35921L112.626 3.43892L112.468 3.60188L112.311 3.68336L112.153 3.84632L111.997 4.00751L111.838 4.17047L111.68 4.33165L111.603 4.49461L111.444 4.6558L111.365 4.81876L111.209 5.06143L111.129 5.22439L111.05 5.46883L110.971 5.63002L110.894 5.87269V6.03565L110.815 6.27831V6.52275L110.735 6.76542V6.92838V7.17105V7.41549V7.65816L110.815 7.9026V8.06379L110.894 8.30822V8.55089L110.971 8.71385L111.05 8.95652L111.129 9.11948L111.209 9.36215L111.365 9.52511L111.444 9.6863L111.603 9.84926L111.68 10.0104L111.838 10.1734L111.997 10.3364L112.153 10.4976L112.311 10.6587L112.468 10.8235L112.626 10.9032L112.783 11.0661L112.941 11.1458L113.099 11.2273L113.335 11.3088L113.493 11.3903L113.729 11.47L113.887 11.5515L114.123 11.633H114.361H114.517L114.753 11.7144H114.99H115.226L115.384 11.633H115.62H115.857L116.014 11.5515L116.251 11.47L116.408 11.3903L116.645 11.3088L116.802 11.2273L116.96 11.1458L117.196 11.0661L117.354 10.9032L117.513 10.8235L117.669 10.6587L117.827 10.4976L117.984 10.3364L118.063 10.1734L118.221 10.0919L118.38 9.84926L118.457 9.6863L118.615 9.52511L118.693 9.36215L118.772 9.11948L118.851 8.95652L118.93 8.71385L119.009 8.55089L119.089 8.30822V8.14527L119.166 7.9026V7.65816V7.41549V7.17105V7.00986V6.76542V6.52275L119.089 6.27831V6.11713L119.009 5.87269L118.93 5.63002L118.851 5.46883L118.772 5.30587L118.693 5.06143L118.615 4.90024L118.457 4.73728L118.38 4.49461L118.221 4.33165L118.142 4.17047L117.984 4.00751L117.827 3.92603L117.669 3.76484L117.513 3.60188L117.354 3.5204L117.196 3.35921L117.039 3.27773L116.802 3.19625L116.645 3.03506L116.487 2.95358H116.251L116.093 2.8721L115.857 2.79062H115.699L115.463 2.70914H115.226H115.069Z" fill="black" fill-opacity="0.4"/>
</g>
<mask id="mask1_2023_47993" style="mask-type:luminance" maskUnits="userSpaceOnUse" x="2" y="0" width="119" height="64">
<path d="M2.12 63.9365H120.118V0.0811386H2.12V63.9365Z" fill="white"/>
</mask>
<g mask="url(#mask1_2023_47993)">
<path d="M34.922 15.4383V26.5887H21.9233V16.9492C21.9233 14.5651 21.7582 13.0364 21.4296 12.3616C20.8205 11.1571 19.857 10.5531 18.5408 10.5531C17.5016 10.5531 16.6843 10.9463 16.089 11.731C15.492 12.5174 15.1961 13.9185 15.1961 15.9396V48.4253C15.1961 49.9964 15.5178 51.1601 16.1647 51.9165C16.8099 52.6746 17.6771 53.0537 18.7679 53.0537C19.7297 53.0537 20.485 52.71 21.0304 52.0228C21.5741 51.3373 21.8476 50.2072 21.8476 48.636V37.2111H34.922V47.7522C34.922 48.0799 34.8205 48.3951 34.8686 48.6945C34.9581 49.256 34.805 50.0318 34.1839 50.7191C30.9527 54.2936 22.1332 60.6455 18.3876 63.7063C18.1674 63.8869 17.8302 63.9472 17.5549 63.9383C12.4122 63.7753 8.37414 62.5461 5.58343 59.3241C3.22802 56.575 2.12 51.9891 2.12 45.5646V18.4672C2.12 15.2151 2.48131 12.4377 3.20393 10.1368C3.92656 7.83767 4.93823 6.00083 6.24412 4.62453C7.54828 3.25 9.0245 2.22618 10.6728 1.55309C12.9783 0.571789 15.8154 0.0811348 19.186 0.0811348C23.1897 0.0811348 26.3314 0.754238 28.6128 2.10043C30.8925 3.44661 32.5149 5.29762 33.4784 7.65522C34.4402 10.0111 34.922 12.606 34.922 15.4383Z" fill="black" fill-opacity="0.4"/>
</g>
<mask id="mask2_2023_47993" style="mask-type:luminance" maskUnits="userSpaceOnUse" x="2" y="0" width="119" height="64">
<path d="M2.12 63.9365H120.118V0.0811386H2.12V63.9365Z" fill="white"/>
</mask>
<g mask="url(#mask2_2023_47993)">
<path d="M105.423 13.3924C105.423 13.3924 96.7743 13.4473 96.7175 13.4756L96.6935 63.6371L92.645 63.6743L82.6281 54.7806V13.4189H73.979V1.46975L105.423 1.45911V13.3924Z" fill="black" fill-opacity="0.4"/>
</g>
<mask id="mask3_2023_47993" style="mask-type:luminance" maskUnits="userSpaceOnUse" x="2" y="0" width="119" height="64">
<path d="M2.12 63.9365H120.118V0.0811386H2.12V63.9365Z" fill="white"/>
</mask>
<g mask="url(#mask3_2023_47993)">
<path d="M76.7105 49.6482L57.4319 32.8651L37.2311 49.2656L48.0292 1.55561L66.611 1.46881L76.7105 49.6482ZM60.799 29.7494L57.3476 12.3269L53.8876 29.7618L60.799 29.7494Z" fill="black" fill-opacity="0.4"/>
</g>
<mask id="mask4_2023_47993" style="mask-type:luminance" maskUnits="userSpaceOnUse" x="2" y="0" width="119" height="64">
<path d="M2.12 63.9365H120.118V0.0811386H2.12V63.9365Z" fill="white"/>
</mask>
<g mask="url(#mask4_2023_47993)">
<path d="M88.0084 63.6289L24.0888 63.744L57.2057 37.031L88.0084 63.6289Z" fill="black" fill-opacity="0.4"/>
</g>
<path d="M7.08374 26.8171H7.31946H7.63603L7.87175 26.8986H8.10918L8.34489 26.9801L8.58061 27.0616L8.89547 27.1413L9.05376 27.2228L9.29119 27.3042L9.5269 27.4654L9.76262 27.5469L9.92091 27.7099L10.1566 27.8728L10.3149 28.034L10.5523 28.197L10.7089 28.3582L10.8655 28.5211L11.0238 28.6841L11.1821 28.9268L11.3386 29.0879L11.4178 29.3324L11.5761 29.5751L11.6552 29.738L11.8118 29.9807L11.8909 30.2233L11.9701 30.4678L12.0475 30.7105V30.9549L12.1284 31.279V31.5217L12.2058 31.7661V32.0088V32.333L12.1284 32.5774V32.8201L12.0475 33.0645V33.3072L11.9701 33.5516L11.8909 33.7943L11.8118 34.037L11.6552 34.2814L11.5761 34.5241L11.4969 34.687L11.3386 34.9297L11.1821 35.1741L11.0238 35.3353L10.8655 35.4965L10.7089 35.7409L10.5523 35.9039L10.3149 36.0651L10.1566 36.2281L9.92091 36.3892L9.76262 36.4707L9.5269 36.6337L9.29119 36.7134L9.05376 36.8764L8.81804 36.9578L8.58061 37.0393H8.34489L8.10918 37.119L7.87175 37.2005H7.63603H7.3986H7.16289H6.84803H6.61232H6.37488L6.13917 37.119L5.90173 37.0393H5.66602L5.43031 36.9578L5.19287 36.7949L4.95544 36.7134L4.71973 36.6337L4.48401 36.4707L4.32572 36.3078L4.09001 36.2281L3.93172 36.0651L3.77515 35.9039L3.61686 35.7409L3.38115 35.4965L3.22286 35.3353L3.06629 35.1741L2.98715 34.9297L2.82886 34.687L2.67057 34.5241L2.59314 34.2814L2.514 34.037L2.43485 33.7943L2.35571 33.5516L2.27656 33.3072L2.19914 33.0645L2.12 32.8201V32.5774V32.2533V32.0088V31.7661V31.5217V31.279L2.19914 30.9549L2.27656 30.7105L2.35571 30.4678L2.43485 30.2233L2.514 30.0622L2.59314 29.8195L2.67057 29.5751L2.82886 29.3324L2.98715 29.0879L3.06629 28.9268L3.22286 28.6841L3.46029 28.5211L3.61686 28.3582L3.77515 28.197L3.93172 28.034L4.16915 27.8728L4.32572 27.7099L4.56316 27.5469L4.79887 27.4654L5.0363 27.3042L5.19287 27.2228L5.43031 27.1413L5.66602 27.0616L5.90173 26.9801L6.13917 26.8986H6.37488L6.61232 26.8171H6.84803H7.08374ZM7.24203 27.5469H7.00632H6.76888L6.53317 27.6284H6.37488L6.13917 27.7099H5.90173L5.74516 27.7914L5.50773 27.8728L5.35116 28.034L5.11373 28.1155L4.95544 28.197L4.79887 28.2767L4.64058 28.4396L4.48401 28.5211L4.32572 28.6841L4.16915 28.8453L4.01086 29.0082L3.85257 29.1694L3.77515 29.3324L3.61686 29.4936L3.53772 29.6565L3.38115 29.8992L3.302 30.0622L3.22286 30.3066L3.14371 30.4678L3.06629 30.7105V30.8734L2.98715 31.1161V31.3605L2.908 31.6032V31.7661V32.0088V32.2533V32.4959L2.98715 32.7404V32.9016L3.06629 33.146V33.3887L3.14371 33.5516L3.22286 33.7943L3.302 33.9572L3.38115 34.1999L3.53772 34.3629L3.61686 34.5241L3.77515 34.687L3.85257 34.8482L4.01086 35.0112L4.16915 35.1741L4.32572 35.3353L4.48401 35.4965L4.64058 35.6612L4.79887 35.7409L4.95544 35.9039L5.11373 35.9836L5.27202 36.0651L5.50773 36.1466L5.66602 36.2281L5.90173 36.3078L6.06002 36.3892L6.29574 36.4707H6.53317H6.68974L6.92545 36.5522H7.16289H7.3986L7.55689 36.4707H7.7926H8.03004L8.18661 36.3892L8.42404 36.3078L8.58061 36.2281L8.81804 36.1466L8.97461 36.0651L9.1329 35.9836L9.36861 35.9039L9.5269 35.7409L9.68519 35.6612L9.84176 35.4965L10.0001 35.3353L10.1566 35.1741L10.2358 35.0112L10.3941 34.9297L10.5523 34.687L10.6298 34.5241L10.7881 34.3629L10.8655 34.1999L10.9446 33.9572L11.0238 33.7943L11.1029 33.5516L11.1821 33.3887L11.2612 33.146V32.983L11.3386 32.7404V32.4959V32.2533V32.0088V31.8476V31.6032V31.3605L11.2612 31.1161V30.9549L11.1821 30.7105L11.1029 30.4678L11.0238 30.3066L10.9446 30.1436L10.8655 29.8992L10.7881 29.738L10.6298 29.5751L10.5523 29.3324L10.3941 29.1694L10.3149 29.0082L10.1566 28.8453L10.0001 28.7638L9.84176 28.6026L9.68519 28.4396L9.5269 28.3582L9.36861 28.197L9.21204 28.1155L8.97461 28.034L8.81804 27.8728L8.65975 27.7914H8.42404L8.26575 27.7099L8.03004 27.6284H7.87175L7.63603 27.5469H7.3986H7.24203Z" stroke="black" stroke-opacity="0.4" stroke-width="0.094"/>
<path fill-rule="evenodd" clip-rule="evenodd" d="M112.626 4.00586H115.226H115.62L115.937 4.08734H116.172L116.329 4.16882H116.408L116.487 4.24853H116.565L116.723 4.33001L116.802 4.41149L116.881 4.57445L116.959 4.65416L117.04 4.81712L117.117 4.89859L117.196 5.05978V5.14126L117.275 5.30422V5.46718V5.62837V5.79133V6.034V6.19696L117.196 6.43963L117.117 6.60259L117.04 6.84525L116.959 7.00821L116.802 7.08792L116.723 7.25088L116.565 7.33236L116.408 7.41384H116.565L116.646 7.49355L116.723 7.57503H116.802L116.959 7.73799L117.04 7.81947V8.06214L117.117 8.30658L117.196 8.46777V8.71221L117.275 9.27902V9.76613L117.354 10.0903V10.1718L117.432 10.3347H116.487V10.1718L116.408 10.0088V9.92909V9.76613V9.60317L116.329 9.44198V9.03635V8.79191V8.63073L116.25 8.38629L116.172 8.14362L116.093 8.06214V7.98066L116.014 7.90095L115.856 7.81947L115.778 7.73799L115.62 7.65651H115.541H115.462H115.305H113.571V10.3347H112.626V4.00586ZM113.571 4.81712V6.84525H115.462H115.62H115.778L115.856 6.76378H116.014L116.093 6.6823H116.172L116.25 6.60259V6.52111L116.329 6.43963V6.27667L116.408 6.19696V6.034V5.95252V5.79133V5.62837V5.46718L116.329 5.30422L116.25 5.14126V5.05978L116.172 4.98007H116.093L116.014 4.89859H115.937L115.778 4.81712H115.699H115.541H113.571Z" fill="black" fill-opacity="0.4"/>
</svg>
