<svg viewBox="0 0 24 24" xmlns="http://www.w3.org/2000/svg">
<path d="M12.2 2C6.58 2 2 6.58 2 12.2C2 17.82 6.58 22.4 12.2 22.4C17.82 22.4 22.4 17.82 22.4 12.2C22.4 6.58 17.82 2 12.2 2ZM12.2 20.5C7.62 20.5 3.9 16.78 3.9 12.2C3.9 7.62 7.62 3.9 12.2 3.9C16.78 3.9 20.5 7.62 20.5 12.2C20.5 16.78 16.78 20.5 12.2 20.5Z" />
<path d="M16.57 7.84C16.39 7.66 16.16 7.56 15.9 7.56C15.64 7.56 15.41 7.66 15.23 7.84L12.19 10.88L9.15 7.84C8.97 7.66 8.74 7.56 8.48 7.56C8.22 7.56 7.99 7.66 7.81 7.84C7.44 8.21 7.44 8.79 7.81 9.16L10.85 12.2L7.81 15.24C7.44 15.61 7.44 16.21 7.81 16.57C7.99 16.75 8.22 16.85 8.48 16.85C8.74 16.85 8.97 16.75 9.15 16.57L12.19 13.53L15.23 16.57C15.41 16.75 15.64 16.85 15.9 16.85C16.16 16.85 16.39 16.75 16.57 16.57C16.94 16.2 16.94 15.6 16.57 15.24L13.53 12.2L16.57 9.16C16.94 8.79 16.94 8.21 16.57 7.84Z" />
</svg>
