<svg width="176" height="36" viewBox="0 0 176 36" fill="none" xmlns="http://www.w3.org/2000/svg">
<rect x="1" y="1.00018" width="130.091" height="34" stroke="white" stroke-width="2"/>
<path fill-rule="evenodd" clip-rule="evenodd" d="M2 34.0002H97.9843V2.00018H2V34.0002Z" fill="#FFCC00"/>
<path fill-rule="evenodd" clip-rule="evenodd" d="M97.9843 34.0002H130.091V2.00018H97.9843V34.0002Z" fill="black"/>
<path fill-rule="evenodd" clip-rule="evenodd" d="M108.699 22.8595C109.259 22.3875 109.355 21.8029 109.355 21.2787V19.075H106.306V22.0659C106.306 22.493 105.962 22.8394 105.54 22.8394C105.116 22.8394 104.801 22.493 104.801 22.0659V13.5937C104.801 13.1663 105.116 12.8199 105.54 12.8199C105.962 12.8199 106.306 13.1663 106.306 13.5937V16.6024H109.352V13.4815C109.352 11.7563 108.235 10.3375 105.513 10.3335C102.72 10.3335 101.663 11.7603 101.663 13.4845V22.3299C101.663 24.0394 103.008 25.3335 104.728 25.3335H105.674L108.699 22.8595Z" fill="white"/>
<path fill-rule="evenodd" clip-rule="evenodd" d="M120.845 23.2287V13.5261H118.72V10.6669H126.412V13.5261H124.276V25.3335H123.365L120.845 23.2287Z" fill="white"/>
<path fill-rule="evenodd" clip-rule="evenodd" d="M122.064 25.3335L114.674 19.0002L107.014 25.3335H122.064Z" fill="#FFCC00"/>
<path fill-rule="evenodd" clip-rule="evenodd" d="M113.791 17.2947L114.609 13.1262L115.42 17.2947H113.791ZM116.712 10.6669H112.487L110.024 21.6949L114.609 18.0019L119.388 22.0002L116.712 10.6669Z" fill="white"/>
<path fill-rule="evenodd" clip-rule="evenodd" d="M127.903 11.4003C128.048 11.3955 128.082 11.3366 128.082 11.2607C128.082 11.1876 128.048 11.1497 127.926 11.1497H127.741V11.4003H127.903ZM127.741 11.5534V11.9768H127.588V10.997H127.906C128.085 10.997 128.273 11.0452 128.273 11.2674C128.273 11.3808 128.203 11.4695 128.072 11.4964V11.5003C128.208 11.5266 128.224 11.5869 128.239 11.693C128.252 11.7857 128.264 11.8887 128.297 11.9768H128.101C128.09 11.9213 128.075 11.8592 128.068 11.8012C128.057 11.7174 128.057 11.6397 128.012 11.5939C127.975 11.5534 127.924 11.5577 127.87 11.5534H127.741ZM128.606 11.4982C128.606 11.1205 128.299 10.8132 127.919 10.8132C127.536 10.8132 127.227 11.1205 127.227 11.4982C127.227 11.879 127.536 12.1875 127.919 12.1875C128.299 12.1875 128.606 11.879 128.606 11.4982ZM127.081 11.4982C127.081 11.0391 127.454 10.6669 127.919 10.6669C128.382 10.6669 128.753 11.0391 128.753 11.4982C128.753 11.9613 128.382 12.3335 127.919 12.3335C127.454 12.3335 127.081 11.9613 127.081 11.4982Z" fill="white"/>
<path fill-rule="evenodd" clip-rule="evenodd" d="M92.1194 9.40034C92.2632 9.39516 92.2968 9.33663 92.2968 9.26041C92.2968 9.18786 92.2632 9.14975 92.1405 9.14975H91.9563V9.40034H92.1194ZM91.9563 9.55338V9.97653H91.8028V8.99701H92.1209C92.3014 8.99701 92.4883 9.04549 92.4883 9.26773C92.4883 9.38053 92.4192 9.46955 92.2886 9.49637V9.50064C92.4235 9.52655 92.4394 9.58722 92.4547 9.69331C92.4678 9.78569 92.4789 9.88842 92.5128 9.97653H92.3167C92.3054 9.92165 92.2907 9.85946 92.2831 9.80154C92.2727 9.7174 92.2727 9.63966 92.2274 9.59393C92.1901 9.55338 92.1387 9.55765 92.0854 9.55338H91.9563ZM92.8224 9.4982C92.8224 9.12048 92.5147 8.81288 92.1347 8.81288C91.7517 8.81288 91.4421 9.12048 91.4421 9.4982C91.4421 9.87928 91.7517 10.1875 92.1347 10.1875C92.5147 10.1875 92.8224 9.87928 92.8224 9.4982ZM91.2955 9.4982C91.2955 9.03939 91.6691 8.66685 92.1347 8.66685C92.5966 8.66685 92.9677 9.03939 92.9677 9.4982C92.9677 9.96128 92.5966 10.3335 92.1347 10.3335C91.6691 10.3335 91.2955 9.96128 91.2955 9.4982Z" fill="black"/>
<path fill-rule="evenodd" clip-rule="evenodd" d="M21.1446 23.8423C21.8629 23.8165 22.1625 23.5004 22.1625 23.0356C22.1625 22.5701 21.8629 22.2544 21.1446 22.2285H20.2066V23.8423H21.1446ZM18.3876 27.3335V21.0002H21.4079C23.0178 21.0002 24.0731 21.5006 24.0731 23.0356C24.0731 24.5702 23.0178 25.0713 21.4079 25.0713H20.2066V27.3335H18.3876Z" fill="black"/>
<path fill-rule="evenodd" clip-rule="evenodd" d="M26.7488 26.3693C27.4815 26.3693 27.6369 25.623 27.6369 25.001C27.6369 24.3777 27.4815 23.6321 26.7488 23.6321C26.0153 23.6321 25.8592 24.3777 25.8592 25.001C25.8592 25.623 26.0153 26.3693 26.7488 26.3693ZM29.4241 25.001C29.4241 26.6232 28.1877 27.3335 26.7488 27.3335C25.3098 27.3335 24.0731 26.6232 24.0731 25.001C24.0731 23.3775 25.3098 22.6668 26.7488 22.6668C28.1877 22.6668 29.4241 23.3775 29.4241 25.001Z" fill="black"/>
<path fill-rule="evenodd" clip-rule="evenodd" d="M31.1526 27.3335L29.7585 23.0002H31.5073L32.2448 26.0727H32.2635L33.0655 23.0002H34.9778L35.7707 26.0554H35.7887L36.5901 23.0002H38.1195L36.6814 27.3335H34.7681L33.9389 24.3128H33.9216L33.0289 27.3335H31.1526Z" fill="black"/>
<path fill-rule="evenodd" clip-rule="evenodd" d="M41.5716 24.4388C41.5716 24.2018 41.5024 23.9652 41.3729 23.7811C41.2415 23.5968 41.0511 23.483 40.7986 23.5007C40.2263 23.5272 40.0868 23.9387 40.0428 24.4388H41.5716ZM40.0088 25.3337C39.9994 25.9031 40.1476 26.3961 40.7637 26.3961C41.2243 26.3961 41.5114 26.1758 41.5716 25.7633H43.1012C43.0491 26.334 42.692 26.7461 42.2757 26.9916C41.8941 27.2371 41.4069 27.3335 40.8951 27.3335C39.1483 27.3335 38.454 26.5791 38.454 24.851C38.454 23.4559 39.4876 22.6668 40.7986 22.6668C42.5709 22.6668 43.1361 23.6929 43.1361 25.3337H40.0088Z" fill="black"/>
<path fill-rule="evenodd" clip-rule="evenodd" d="M45.9297 23.6524H45.9491C46.1496 22.9031 46.7163 22.6496 47.4839 22.6677V24.1201C47.3562 24.1117 47.2363 24.1117 47.1188 24.1117C46.2137 24.1201 45.9028 24.6538 45.9297 25.5197V27.3335H44.1936V23.9678C44.1936 23.5616 44.1851 23.2909 44.1395 22.8029H45.9028L45.9297 23.6524Z" fill="black"/>
<path fill-rule="evenodd" clip-rule="evenodd" d="M54.5036 22.6787C54.5116 22.4306 54.4316 22.2446 54.2711 22.1114C54.1182 21.9776 53.886 21.9085 53.5819 21.9085C53.1716 21.9085 52.8138 22.1735 52.8138 22.4927C52.8138 22.9629 53.3857 23.1135 53.8597 23.2371C54.9403 23.5123 56.5138 23.6187 56.5138 25.3478C56.5138 26.6948 55.1734 27.3335 53.6802 27.3335C52.1783 27.3335 50.8556 26.899 50.8283 25.1614H52.6166C52.608 25.7641 53.0553 26.0918 53.6978 26.0918C54.1099 26.0918 54.6375 25.8794 54.6375 25.4535C54.6375 24.5855 53.3138 24.7719 51.9105 24.1593C51.258 23.8755 50.9362 23.2903 50.9362 22.5984C51.0078 21.0832 52.3482 20.6668 53.6978 20.6668C55.0302 20.6668 56.3978 21.1357 56.2903 22.6787H54.5036Z" fill="black"/>
<path fill-rule="evenodd" clip-rule="evenodd" d="M61.8648 22.6668L59.3773 29.0002H57.7809L58.4288 27.385L56.5137 22.6668H58.3646L59.2672 25.8517H59.2856L60.2694 22.6668H61.8648Z" fill="black"/>
<path fill-rule="evenodd" clip-rule="evenodd" d="M64.5176 24.159C64.5176 24.009 64.4897 23.8776 64.409 23.7893C64.3183 23.6929 64.1744 23.6321 63.9393 23.6321C63.6865 23.6321 63.5332 23.7723 63.5332 24.0276C63.5332 24.3505 64.2278 24.3332 65.3017 24.6575C65.8437 24.8251 66.2125 25.1491 66.2125 25.8698C66.2125 27.0351 65.0845 27.3335 64.0479 27.3335C62.9384 27.3335 61.8555 27.1139 61.8649 25.7717H63.4885C63.4606 25.9032 63.5066 26.0522 63.6058 26.1663C63.705 26.28 63.8496 26.3693 64.0116 26.3693C64.3458 26.3693 64.5889 26.246 64.5889 25.9656C64.5889 25.1847 61.9096 25.6488 61.9096 24.0534C61.9096 22.9653 63.1005 22.6668 64.0029 22.6668C65.0768 22.6668 66.0686 22.9381 66.1399 24.159H64.5176Z" fill="black"/>
<path fill-rule="evenodd" clip-rule="evenodd" d="M67.7873 23.0012V22.3148L69.5435 21.6668V23.0012H70.5603V24.0839H69.5435V25.8799C69.5435 25.9969 69.4701 26.5831 69.8759 26.5831C70.1066 26.5831 70.3474 26.5831 70.5506 26.5578V27.5761C70.1542 27.6487 69.8662 27.6668 69.6076 27.6668C68.4148 27.6668 67.6946 27.5051 67.7873 26.1143V24.0839H66.8814V23.0012H67.7873Z" fill="black"/>
<path fill-rule="evenodd" clip-rule="evenodd" d="M74.0141 24.4388C74.0141 24.2018 73.9442 23.9652 73.8128 23.7811C73.6837 23.5968 73.4921 23.483 73.2409 23.5007C72.6665 23.5272 72.5283 23.9387 72.485 24.4388H74.0141ZM72.45 25.3337C72.4419 25.9031 72.5885 26.3961 73.205 26.3961C73.6659 26.3961 73.9523 26.1758 74.0141 25.7633H75.5416C75.4904 26.334 75.1338 26.7461 74.717 26.9916C74.3348 27.2371 73.8481 27.3335 73.3361 27.3335C71.5895 27.3335 70.8947 26.5791 70.8947 24.851C70.8947 23.4559 71.9293 22.6668 73.2409 22.6668C75.0118 22.6668 75.5768 23.6929 75.5768 25.3337H72.45Z" fill="black"/>
<path fill-rule="evenodd" clip-rule="evenodd" d="M78.3109 23.5521H78.3278C78.6458 22.9289 79.2427 22.6948 79.9224 22.6948C80.4754 22.6948 81.1011 22.983 81.2905 23.5332C81.5998 22.9917 82.2241 22.6847 82.9037 22.6668C83.8822 22.6668 84.6067 23.2988 84.6067 24.3014V27.3335H82.8845V24.6714C82.8672 24.2288 82.7579 23.7505 82.2241 23.7505C81.3729 23.7505 81.4806 24.6798 81.4806 24.734V27.3335H79.7603V24.6714C79.7424 24.2288 79.6331 23.7505 79.0982 23.7505C78.2477 23.7505 78.3558 24.6798 78.3558 24.734V27.3335H76.6345V23.9671C76.6345 23.5608 76.6258 23.2901 76.5802 22.8021H78.2829L78.3109 23.5521Z" fill="black"/>
<path fill-rule="evenodd" clip-rule="evenodd" d="M88.2624 24.159C88.2624 24.009 88.2349 23.8776 88.1539 23.7893C88.0645 23.6929 87.9197 23.6321 87.6844 23.6321C87.4321 23.6321 87.2785 23.7723 87.2785 24.0276C87.2785 24.3505 87.9741 24.3332 89.0471 24.6575C89.5881 24.8251 89.9577 25.1491 89.9577 25.8698C89.9577 27.0351 88.83 27.3335 87.7933 27.3335C86.6847 27.3335 85.6027 27.1139 85.61 25.7717H87.2351C87.2073 25.9032 87.2519 26.0522 87.3518 26.1663C87.4502 26.28 87.595 26.3693 87.7577 26.3693C88.091 26.3693 88.3337 26.246 88.3337 25.9656C88.3337 25.1847 85.6558 25.6488 85.6558 24.0534C85.6558 22.9653 86.8464 22.6668 87.7486 22.6668C88.8216 22.6668 89.8126 22.9381 89.8852 24.159H88.2624Z" fill="black"/>
<path fill-rule="evenodd" clip-rule="evenodd" d="M18.3116 8.66685H27.083V10.4179L22.1909 15.8806H27.083V17.6669H18.0531V15.8806L22.8854 10.4179H18.3116V8.66685Z" fill="black"/>
<path fill-rule="evenodd" clip-rule="evenodd" d="M82.746 8.66685L87.1843 14.0419V8.66685H89.9578V17.6669H87.1843L82.7051 12.2358V17.6669H79.9246V8.66685H82.746Z" fill="black"/>
<path fill-rule="evenodd" clip-rule="evenodd" d="M67.5503 8.66685H70.5999V15.8825H73.9047V17.6669H67.5503V8.66685Z" fill="black"/>
<path fill-rule="evenodd" clip-rule="evenodd" d="M29.4241 8.66685H36.8557V10.4525H32.6038V12.277H36.5871V14.0633H32.6038V15.8703H37.1162V17.6669H29.4241V8.66685Z" fill="black"/>
<path fill-rule="evenodd" clip-rule="evenodd" d="M43.7168 13.2352C43.3399 13.6049 42.5144 13.5954 42.5144 13.5954L42.0009 13.6049V10.4858H42.5144C42.5144 10.4858 43.1953 10.4657 43.5074 10.666C43.9825 10.9774 44.1044 11.4272 44.1044 11.9455C44.1044 12.4635 44.0775 12.8774 43.7168 13.2352ZM44.7064 8.91728C43.9295 8.6652 42.1711 8.66685 42.1711 8.66685H40.8311V8.66784L38.7884 8.66685V17.6669H42.0009V15.5389C42.3405 15.5313 42.6644 15.5286 42.8446 15.5286C43.3245 15.5286 44.1913 15.4229 44.7856 15.2103C46.3413 14.6535 47.1494 13.3809 47.1494 12.0661C47.1494 10.7105 46.4346 9.46724 44.7064 8.91728Z" fill="black"/>
<path fill-rule="evenodd" clip-rule="evenodd" d="M57.8515 8.66685H65.2778V10.4525H61.0289V12.277H65.0106V14.0633H61.0289V15.8703H65.5436V17.6669H57.8515V8.66685Z" fill="black"/>
<path fill-rule="evenodd" clip-rule="evenodd" d="M53.4171 13.2352C53.0391 13.6049 52.2133 13.5954 52.2133 13.5954L51.6977 13.6049V10.4858H52.2133C52.2133 10.4858 52.8924 10.4657 53.2063 10.666C53.6813 10.9774 53.8062 11.4272 53.8062 11.9455C53.8062 12.4635 53.7776 12.8774 53.4171 13.2352ZM54.4054 8.91728C53.6273 8.6652 51.8709 8.66685 51.8709 8.66685H50.5285V8.66784L48.4872 8.66685V17.6669H51.6977V15.5389C52.0374 15.5313 52.3627 15.5286 52.5433 15.5286C53.0247 15.5286 53.8908 15.4229 54.4833 15.2103C56.0405 14.6535 56.8482 13.3809 56.8482 12.0661C56.8482 10.7105 56.1355 9.46724 54.4054 8.91728Z" fill="black"/>
<path fill-rule="evenodd" clip-rule="evenodd" d="M74.908 17.6669H77.9179V8.66685H74.908V17.6669Z" fill="black"/>
<path fill-rule="evenodd" clip-rule="evenodd" d="M158.869 14.55L152.779 21.45V27H166.807V34H145.091V14.55H158.869ZM174.545 2V21.45H160.766L166.807 14.6V9H152.779V2H174.545Z" fill="white"/>
</svg>
